<?xml version="1.0" standalone="no"?>
<!DOCTYPE svg PUBLIC "-//W3C//DTD SVG 20010904//EN"
 "http://www.w3.org/TR/2001/REC-SVG-20010904/DTD/svg10.dtd">
<svg version="1.0" xmlns="http://www.w3.org/2000/svg"
 width="160.000000pt" height="160.000000pt" viewBox="0 0 160.000000 160.000000"
 preserveAspectRatio="xMidYMid meet">
<metadata>
Created by potrace 1.14, written by Peter Selinger 2001-2017
</metadata>
<g transform="translate(0.000000,160.000000) scale(0.100000,-0.100000)"
fill="#000000" stroke="none">
<path d="M0 800 l0 -800 800 0 800 0 0 800 0 800 -800 0 -800 0 0 -800z m997
605 c193 -61 345 -213 410 -409 22 -69 27 -98 27 -196 0 -98 -5 -127 -27 -196
-25 -76 -90 -193 -117 -209 -6 -4 -20 2 -31 14 -11 11 -31 24 -44 27 -14 3
-25 7 -25 9 0 1 19 31 43 66 63 95 82 162 82 294 -1 121 -19 190 -72 269 -15
23 -26 51 -25 63 1 11 -5 24 -13 27 -8 3 -15 15 -15 26 0 42 -136 150 -189
150 -11 0 -23 5 -26 10 -3 6 -35 10 -70 10 -35 0 -66 4 -69 9 -9 13 -84 4
-109 -14 -29 -20 -40 -19 -32 5 11 34 -21 23 -44 -15 -11 -19 -27 -35 -36 -35
-8 0 -15 -4 -15 -9 0 -5 -31 -29 -68 -54 -125 -82 -202 -187 -237 -322 -38
-149 -1 -324 95 -445 36 -46 37 -50 6 -50 -13 0 -35 -9 -49 -20 -14 -11 -29
-20 -34 -20 -4 0 -23 23 -42 51 -131 201 -146 432 -41 644 140 283 462 418
767 320z m37 -364 c11 -12 15 -29 12 -52 -6 -48 -17 -79 -26 -79 -5 0 -6 -9
-3 -21 6 -20 3 -20 -61 -17 -37 3 -71 9 -76 14 -12 12 -20 134 -9 134 5 0 9 6
9 14 0 29 128 35 154 7z m-274 -221 c0 -5 -4 -10 -10 -10 -5 0 -10 5 -10 10 0
6 5 10 10 10 6 0 10 -4 10 -10z"/>
</g>
</svg>
